<?xml version="1.0" encoding="UTF-8"?>
<svg version="1.1" xmlns="http://www.w3.org/2000/svg" width="512" height="512">
<path d="M0 0 C1.24611665 -0.00906223 2.4922333 -0.01812445 3.77611107 -0.02746129 C7.20985858 -0.04830076 10.64276375 -0.05141888 14.07651389 -0.04668379 C17.78977785 -0.04586353 21.5029194 -0.06798316 25.21612549 -0.08691406 C32.48229957 -0.12005389 39.74834381 -0.13112956 47.01458717 -0.13336357 C52.92621622 -0.13526869 58.83780269 -0.14350997 64.74941826 -0.15616608 C81.53752581 -0.1913719 98.32553135 -0.20984724 115.11367608 -0.20684418 C116.46952655 -0.20660444 116.46952655 -0.20660444 117.85276794 -0.20635986 C118.75778177 -0.20619634 119.6627956 -0.20603282 120.59523409 -0.20586434 C135.24937268 -0.20423989 149.90309946 -0.24248768 164.55711902 -0.29891333 C179.63078235 -0.35649319 194.70424528 -0.38398712 209.77802128 -0.38053823 C218.22992316 -0.37921443 226.68139354 -0.39002074 235.13319588 -0.43325043 C242.33181229 -0.46983624 249.52980172 -0.47823813 256.72847129 -0.45121273 C260.39479323 -0.43823203 264.05991536 -0.43762336 267.72612 -0.47262573 C300.53639308 -0.76608933 300.53639308 -0.76608933 313.05326176 11.16386795 C313.79300456 11.94629238 314.53274736 12.72871681 315.29490662 13.53485107 C316.22303162 14.25672607 317.15115662 14.97860107 318.10740662 15.72235107 C328.06115313 24.06818469 335.44622298 36.81208599 336.93884993 49.84827387 C337.26210122 54.39262789 337.22102137 58.92846749 337.17033386 63.48121643 C337.17698519 65.22389079 337.18669222 66.96655564 337.19914842 68.70919818 C337.22426109 73.4480429 337.20632509 78.18585194 337.1806612 82.92465675 C337.16057717 88.05419746 337.18113599 93.18360563 337.19636536 98.31314087 C337.21970411 108.34075188 337.20569673 118.36797275 337.17842683 128.39556048 C337.14784709 140.08345624 337.15280538 151.77125813 337.15865424 163.45918258 C337.1677085 184.31578336 337.14194589 205.17219837 337.09764099 226.02874756 C337.05469323 246.25016666 337.04056015 266.4713511 337.05662537 286.69281006 C337.07410272 308.74001378 337.07583254 330.78711136 337.05004144 352.83431071 C337.04730843 355.18609185 337.04458208 357.537873 337.04186249 359.88965416 C337.04050113 361.04664125 337.03913978 362.20362833 337.03773718 363.39567563 C337.02912669 371.536537 337.03135354 379.67735416 337.03751373 387.81821632 C337.04457099 397.73958069 337.03330623 407.66073034 336.99900588 417.582041 C336.98192287 422.64083633 336.9726741 427.69931091 336.98514175 432.75812721 C336.99631609 437.39363377 336.98420334 442.02848857 336.95391205 446.66390427 C336.94696883 448.3358596 336.94832602 450.00787566 336.95907399 451.67981086 C337.05336844 467.76345965 332.01842502 481.75851386 321.02928162 493.82391357 C317.3581661 497.44541942 313.48804264 500.53788765 309.29490662 503.53485107 C308.03161844 504.4712453 308.03161844 504.4712453 306.7428093 505.42655659 C294.79539642 512.78674973 281.25626266 511.51385918 267.69279456 511.40594661 C263.93134763 511.38375767 260.17005853 511.40233742 256.40859985 511.41557312 C249.05824589 511.43505524 241.70843967 511.41736199 234.35814247 511.38660958 C225.7884522 511.35207344 217.21888277 511.35400714 208.64913759 511.35708807 C193.35565387 511.36127083 178.06242608 511.33137687 162.76902771 511.28265381 C147.94572525 511.23544839 133.12267834 511.21422998 118.29930115 511.22113037 C99.54992166 511.22980166 80.80069792 511.21556635 62.05134614 511.18237799 C56.08416791 511.17248548 50.11701888 511.17073201 44.14983368 511.17172813 C36.87655514 511.17248697 29.60347734 511.15826015 22.33027014 511.12544896 C18.62261715 511.10901968 14.91523724 511.09877219 11.20754814 511.10588074 C7.18277359 511.1133431 3.15877199 511.08965562 -0.86592102 511.06297302 C-2.61135842 511.07328781 -2.61135842 511.07328781 -4.39205718 511.08381099 C-11.64441231 511.00192147 -17.2006682 509.73405026 -23.70509338 506.53485107 C-24.49444865 506.15678918 -25.28380392 505.77872729 -26.09707904 505.38920897 C-40.65211941 498.19557492 -49.57399942 485.09408798 -55.70509338 470.53485107 C-56.9010131 464.49726694 -57.05855337 458.50290667 -57.26368713 452.36688232 C-57.30593918 451.11470413 -57.34819122 449.86252594 -57.39172363 448.57240295 C-57.94481329 430.74370559 -57.81663971 412.90288815 -57.77375793 395.06793213 C-57.76147659 389.39881332 -57.75709477 383.72968295 -57.75130463 378.0605545 C-57.74177211 369.55196367 -57.7225489 361.04344585 -57.70509338 352.53485107 C-44.50509338 352.53485107 -31.30509338 352.53485107 -17.70509338 352.53485107 C-17.64450745 358.18739014 -17.58392151 363.8399292 -17.52149963 369.66375732 C-17.48089156 373.29592437 -17.44006131 376.92808631 -17.39845276 380.5602417 C-17.33277433 386.29532828 -17.26781336 392.03041516 -17.20777893 397.76556396 C-17.10324609 407.67991436 -16.98286394 417.593597 -16.81519508 427.50710487 C-16.73410383 432.35097091 -16.6867232 437.19374724 -16.6577301 442.03826904 C-16.622234 444.08794844 -16.58485901 446.13759685 -16.54493713 448.18719482 C-16.54973587 449.05437637 -16.55453461 449.92155792 -16.55947876 450.8150177 C-16.37642497 457.1368265 -14.09116307 461.02136743 -9.70509338 465.53485107 C-2.22820201 471.59494373 7.61713199 470.68524311 16.71910095 470.69548035 C17.85143583 470.70056817 18.9837707 470.70565599 20.15041876 470.71089798 C23.93490835 470.72656205 27.71937893 470.73513133 31.50389099 470.74359131 C33.52852298 470.75031966 35.55315105 470.7578188 37.57777989 470.76543164 C46.41248094 470.79862876 55.24719331 470.82024475 64.08193612 470.83863148 C66.38266229 470.84343232 68.683388 470.84841484 70.98411369 470.85343671 C85.28486836 470.88439481 99.5856272 470.91106528 113.88640594 470.92785549 C117.19298307 470.93180462 120.49956011 470.93580769 123.80613708 470.93988037 C124.62791488 470.94088873 125.44969268 470.94189709 126.29637283 470.94293601 C139.62129588 470.95995879 152.94603377 471.00109433 166.27086633 471.05190336 C179.9623879 471.10368035 193.65381411 471.13279702 207.34543276 471.14005238 C215.02852815 471.14471245 222.71131933 471.15944218 230.39431763 471.19979668 C236.93364766 471.23410424 243.47261847 471.2480328 250.01203334 471.23537254 C253.34713064 471.22954837 256.68085367 471.23666675 260.01593971 471.26354218 C263.63482762 471.29114707 267.25180965 471.28174653 270.87071228 471.2631073 C271.91974527 471.27990223 272.96877826 471.29669716 274.04960012 471.31400102 C280.08595579 471.23629323 284.00285352 470.37886455 288.58573735 466.31327301 C289.14976321 465.72639377 289.71378906 465.13951453 290.29490662 464.53485107 C290.81550938 464.00408649 291.33611215 463.47332191 291.87249076 462.92647356 C296.96798145 456.45539892 295.98874221 448.17029713 295.92982483 440.36517334 C295.93558933 438.705792 295.94353266 437.04641705 295.95346105 435.3870554 C295.97431255 430.83696803 295.96402697 426.28740574 295.94852996 421.73731661 C295.93721343 416.82652022 295.95468067 411.91581388 295.96842957 407.0050354 C295.99066324 397.38869259 295.98586017 387.7725449 295.97136636 378.15619445 C295.96007465 370.3408382 295.95854293 362.52553663 295.96398544 354.71017456 C295.96475161 353.59787304 295.96551777 352.48557153 295.96630716 351.33956391 C295.96790578 349.07994801 295.96952685 346.82033213 295.97117011 344.56071627 C295.985428 323.37204039 295.96903424 302.18347266 295.94216828 280.99481452 C295.91982949 262.81376993 295.92370961 244.63288497 295.94676208 226.45184326 C295.97351935 205.33901688 295.9840547 184.2262853 295.96870077 163.11344433 C295.96710802 160.86213876 295.96553617 158.61083318 295.96398544 156.35952759 C295.96321407 155.25184086 295.96244269 154.14415413 295.96164794 153.00290114 C295.95733073 145.19688775 295.96461796 137.39093449 295.97638321 129.58493042 C295.9904059 120.07204379 295.98661302 110.55936344 295.95997949 101.04650044 C295.94683829 96.19279963 295.94169418 91.33944276 295.95822525 86.48574448 C295.97313144 82.04192199 295.96492566 77.59876205 295.93833749 73.15499961 C295.93275535 71.54811503 295.93558705 69.94117441 295.94771643 68.33432591 C296.16943553 56.45807976 296.16943553 56.45807976 290.29490662 46.53485107 C288.35168419 44.95414061 286.48708832 43.78040886 284.29490662 42.53485107 C283.96490662 42.20485107 283.63490662 41.87485107 283.29490662 41.53485107 C281.67066099 41.42653198 280.04172373 41.38799323 278.41390991 41.37663269 C277.35350809 41.36684324 276.29310627 41.35705379 275.20057106 41.3469677 C273.43536897 41.33833545 273.43536897 41.33833545 271.63450623 41.32952881 C270.39871008 41.31963488 269.16291393 41.30974094 267.88966942 41.2995472 C264.46367762 41.27320897 261.03771146 41.25137776 257.61167932 41.23155332 C253.96945826 41.20949483 250.32727811 41.18195464 246.68508911 41.15519714 C239.64156767 41.10447236 232.59802074 41.05951613 225.55444568 41.0169484 C219.8689433 40.9825749 214.18345486 40.94642199 208.49797058 40.90917969 C134.73039229 40.42606006 134.73039229 40.42606006 60.96176624 40.50439644 C56.5342569 40.52588905 52.10678463 40.54142165 47.67923546 40.55173111 C40.28657956 40.56908453 32.89492752 40.61242588 25.50260925 40.68945312 C23.16742309 40.71089583 20.83215094 40.72473672 18.49687195 40.7298584 C15.40011279 40.73895544 12.30531811 40.77886409 9.20896912 40.82781982 C8.33756287 40.82389725 7.46615662 40.81997467 6.56834412 40.81593323 C-0.65942076 40.98891653 -7.28986983 42.98091861 -12.41638184 48.31564331 C-15.92346976 53.31380711 -16.45781042 57.93570152 -16.48243713 63.91375732 C-16.50571579 64.87818253 -16.52899445 65.84260773 -16.55297852 66.83625793 C-16.62990216 70.4024218 -16.66683227 73.96806467 -16.70509338 77.53485107 C-16.74103414 79.85540579 -16.78034353 82.17589071 -16.81972694 84.49638939 C-17.00037872 95.21805367 -17.12361516 105.94010953 -17.23731995 116.66265869 C-17.2973588 122.23489394 -17.36298026 127.80706616 -17.42761993 133.37924957 C-17.52428931 141.76441031 -17.61405483 150.14961884 -17.70509338 158.53485107 C-30.90509338 158.53485107 -44.10509338 158.53485107 -57.70509338 158.53485107 C-57.74520219 139.27370952 -57.74520219 139.27370952 -57.75392151 130.85125732 C-57.75982304 125.17823309 -57.76668101 119.50522548 -57.78053284 113.83221436 C-57.82333358 95.71390103 -57.85824338 77.59369238 -57.38868713 59.48016357 C-57.36645584 58.29816376 -57.34422455 57.11616394 -57.32131958 55.89834595 C-56.83228785 40.6287795 -50.94002866 26.16188404 -39.70509338 15.53485107 C-34.39994481 10.80392698 -29.460887 6.94763451 -22.70509338 4.53485107 C-22.01782435 4.21202298 -21.33055532 3.88919488 -20.62245995 3.55658412 C-13.65886923 0.38577793 -7.58249688 -0.04084603 0 0 Z " fill="#FFFFFF" transform="translate(145.70509338378906,0.46514892578125)"/>
<path d="M0 0 C5.80822174 0.11744566 9.15287465 3.81666763 13.3125 7.5 C14.3815211 8.40411713 15.45329859 9.30498197 16.52734375 10.203125 C21.17699003 14.09611661 25.78259076 18.03966429 30.375 22 C33.17112042 24.44919391 33.17112042 24.44919391 35.75 26.25 C36.265625 26.6625 36.78125 27.075 37.3125 27.5 C37.3125 28.16 37.3125 28.82 37.3125 29.5 C37.869375 29.74878906 38.42625 29.99757812 39 30.25390625 C46.79762566 34.45566737 53.41982343 41.43497843 59.87402344 47.46240234 C63.91449935 51.21010934 68.15364508 54.61885344 72.546875 57.94140625 C73.12953125 58.45574219 73.7121875 58.97007812 74.3125 59.5 C74.3125 60.16 74.3125 60.82 74.3125 61.5 C75.055 61.726875 75.7975 61.95375 76.5625 62.1875 C79.86718578 63.76473639 81.0662857 65.6411818 83.3125 68.5 C85.29325027 69.86176581 87.29329663 71.19593116 89.3125 72.5 C90.64860245 73.83055846 91.98162442 75.16421344 93.3125 76.5 C94.92344553 77.82971266 96.54984927 79.1408191 98.1875 80.4375 C102.74021909 84.12216732 107.05027053 87.98444217 111.3125 92 C117.87405008 98.17504905 124.682181 103.91313317 131.80859375 109.43359375 C134.48880083 111.64549632 136.87017217 114.02846645 139.3125 116.5 C141.5636314 118.6256518 143.84365529 120.71935987 146.125 122.8125 C146.72248047 123.36228516 147.31996094 123.91207031 147.93554688 124.47851562 C149.39364922 125.81996978 150.8529504 127.16012065 152.3125 128.5 C151.46465415 133.06218918 148.79532612 135.21380577 145.4375 138.1875 C144.85105713 138.71786865 144.26461426 139.2482373 143.66040039 139.79467773 C139.24627447 143.75503175 134.68326127 147.51084037 130.05859375 151.22265625 C127.04930379 153.7182694 124.17321148 156.33775124 121.3125 159 C115.84336992 164.08626438 110.13971115 168.82687937 104.3125 173.5 C101.37904172 175.87411242 98.54733376 178.26516624 95.875 180.9375 C93.40155429 183.41094571 90.83943438 185.66470937 88.171875 187.921875 C86.34705323 189.47067331 84.54649207 191.04347279 82.75 192.625 C78.40241866 196.4407413 73.99829117 200.18921583 69.59863281 203.94458008 C66.01423022 207.0134245 62.48576335 210.13126512 59 213.3125 C55.25241472 216.72051824 51.37744559 219.86290966 47.3203125 222.89453125 C45.25664098 224.48395404 45.25664098 224.48395404 43.36328125 226.44921875 C41.15411969 228.65838031 38.8214679 230.55754127 36.375 232.5 C32.00594526 236.03602164 27.85316491 239.72304085 23.75 243.5625 C22.64386485 244.58011849 21.53710336 245.59705663 20.4296875 246.61328125 C18.49520645 248.38959348 16.6207477 250.18857912 14.7578125 252.04296875 C9.97167715 256.47602854 6.59558609 258.04511137 0 258.3125 C-4.47132724 258.05033749 -6.23764135 257.82009173 -9.9375 255.1875 C-10.515 254.300625 -11.0925 253.41375 -11.6875 252.5 C-12.3475 251.51 -13.0075 250.52 -13.6875 249.5 C-14.92323362 241.61912927 -15.01155121 233.65012589 -15.25 225.6875 C-15.29318359 224.41712891 -15.33636719 223.14675781 -15.38085938 221.83789062 C-15.62019762 214.21325793 -15.71225784 206.6017326 -15.69897461 198.97387695 C-15.69773212 197.59998684 -15.69773212 197.59998684 -15.69646454 196.19834137 C-15.69432485 193.96555851 -15.69132127 191.7327805 -15.6875 189.5 C-16.56903984 189.50276538 -16.56903984 189.50276538 -17.46838856 189.50558662 C-31.80928725 189.54987484 -46.15017981 189.58290947 -60.49113178 189.60362434 C-67.42648599 189.61390975 -74.36179436 189.62791737 -81.29711914 189.65087891 C-87.99499832 189.67304362 -94.69282014 189.68458231 -101.39073753 189.68975449 C-103.94108007 189.69343861 -106.49142012 189.70063271 -109.04174232 189.71146011 C-112.62464564 189.72606098 -116.20735474 189.72797434 -119.7902832 189.72705078 C-120.83542084 189.73424133 -121.88055847 189.74143188 -122.95736694 189.74884033 C-141.3185342 189.69790938 -141.3185342 189.69790938 -148.34765625 183.1328125 C-150.86141386 180.06939943 -151.93642959 177.40325022 -151.94819641 173.44606018 C-151.95528122 172.64844269 -151.96236603 171.8508252 -151.96966553 171.02903748 C-151.96718811 170.16295364 -151.96471069 169.29686981 -151.9621582 168.40454102 C-151.96726913 167.48539917 -151.97238007 166.56625732 -151.97764587 165.6192627 C-151.99154663 162.58074432 -151.99058476 159.54245264 -151.98828125 156.50390625 C-151.99216784 154.391677 -151.99650244 152.27944853 -152.00126648 150.16722107 C-152.00872968 145.73962877 -152.00843662 141.31211621 -152.00317383 136.88452148 C-151.99737839 131.21048553 -152.01431164 125.53677591 -152.0375185 119.86279392 C-152.05224955 115.50048412 -152.0531284 111.13825304 -152.05000877 106.77592278 C-152.05052228 104.68394258 -152.05576546 102.591958 -152.06582069 100.50000191 C-152.07815573 97.57473663 -152.07141093 94.65010858 -152.05981445 91.72485352 C-152.06745819 90.86079391 -152.07510193 89.99673431 -152.08297729 89.10649109 C-152.03282576 83.38345607 -151.03924241 80.01892789 -147.0390625 75.734375 C-146.46929687 75.24453125 -145.89953125 74.7546875 -145.3125 74.25 C-144.74789062 73.74984375 -144.18328125 73.2496875 -143.6015625 72.734375 C-138.82425527 69.65349932 -132.37269413 70.17738817 -126.86279297 69.94360352 C-125.89374968 69.90142228 -124.92470638 69.85924105 -123.92629814 69.81578159 C-112.91191691 69.37515177 -101.90415475 69.37404296 -90.8828125 69.40234375 C-88.69465162 69.40421559 -86.50649031 69.40563586 -84.31832886 69.40663147 C-78.6402871 69.41039646 -72.96227211 69.42017307 -67.28424072 69.43133545 C-61.45772666 69.44168122 -55.63120815 69.4461569 -49.8046875 69.45117188 C-38.43228009 69.46180262 -27.0598923 69.47880383 -15.6875 69.5 C-15.68866601 68.66049647 -15.68866601 68.66049647 -15.68985558 67.80403328 C-15.69297871 65.21977896 -15.69488403 62.63552504 -15.69677734 60.05126953 C-15.69864296 58.73126701 -15.69864296 58.73126701 -15.70054626 57.38459778 C-15.70473448 49.73317641 -15.59143281 42.08949355 -15.37011719 34.44140625 C-15.31148697 32.33866836 -15.26520459 30.23585059 -15.21875 28.1328125 C-14.72650499 9.12924328 -14.72650499 9.12924328 -10.3125 3.4375 C-6.60410629 0.70035226 -4.53976742 0.61556168 0 0 Z " fill="#FFFFFF" transform="translate(181.6875,126.5)"/>
</svg>
